PathFileType	4	(X/Y/Z)	D:\TRACE\spotREDO_2-26-24\spot_justArm_Motion_3_5-platform.trc
DataRate	CameraRate	NumFrames	NumMarkers	Units	OrigDataRate	OrigDataStartFrame	OrigNumFrames
100.00	100.00	      30	5	mm	100.00	4376	      7000
Frame#	Time	Left_Front			Right_Front			Left_Aft			Right_Aft			Post			
		X1	Y1	Z1	X2	Y2	Z2	X3	Y3	Z3	X4	Y4	Z4	X5	Y5	Z5	

4376	43.750	-704.12274	-54.89976	-586.37970	710.85760	-38.98006	-502.21811	-775.86011	56.37090	627.62292	793.93091	62.64629	632.05133	5.50669	535.85211	-1043.86646	
4377	43.760	-703.88068	-55.25102	-586.45203	711.23407	-39.37515	-502.35013	-775.66785	56.66297	627.58472	794.06781	63.13285	631.80475	5.85747	535.19116	-1044.42407	
4378	43.770	-703.75531	-55.57298	-586.53589	711.20551	-39.69459	-502.44772	-775.65625	56.92743	627.49512	794.21570	63.84707	631.78021	6.12322	534.74158	-1044.92383	
4379	43.780	-703.39709	-55.92047	-586.63385	711.29523	-40.11952	-502.47009	-775.37958	57.25694	627.41235	794.22974	64.23550	631.60962	6.25895	534.05341	-1045.50037	
4380	43.790	-703.18317	-56.14962	-586.60492	711.44592	-40.48114	-502.44540	-775.00043	57.57246	627.40186	794.34271	64.33181	631.61194	6.16816	533.53516	-1045.84607	
4381	43.800	-703.17456	-56.28260	-586.61896	711.46405	-40.70464	-502.60245	-774.89020	57.79122	627.24475	794.45477	64.51025	631.58832	6.40189	533.07166	-1046.10181	
4382	43.810	-703.10773	-56.52900	-586.66589	711.60455	-40.88558	-502.61954	-774.73029	58.14464	626.99158	794.49420	64.71889	631.31561	6.53847	532.52875	-1046.46155	
4383	43.820	-702.96411	-56.85049	-586.72089	711.65735	-41.09776	-502.78949	-774.62653	58.48571	626.87848	794.76074	65.05963	631.25128	6.73433	532.08722	-1046.67883	
4384	43.830	-702.86133	-57.27880	-586.72925	711.81598	-41.26149	-502.79749	-774.40082	58.84827	626.83008	794.86877	65.48969	631.24829	7.59740	531.14532	-1046.61804	
4385	43.840	-702.71820	-57.59844	-586.88226	712.00165	-41.49948	-502.80762	-774.26251	59.08206	626.74475	795.16980	65.79092	631.17432	6.95515	530.91467	-1047.25598	
4386	43.850	-702.63910	-57.80577	-586.95990	712.29938	-41.83084	-502.68307	-774.12988	59.31483	626.63184	795.33246	65.98554	631.07977	6.99952	530.60626	-1047.47717	
4387	43.860	-702.56586	-58.05379	-586.88690	712.50592	-42.09388	-502.63977	-774.04974	59.49568	626.42926	795.49475	66.21582	631.02655	7.65897	530.16919	-1047.34790	
4388	43.870	-702.39215	-58.42107	-587.02344	712.59583	-42.24504	-502.70343	-773.86005	59.65471	626.35779	795.71912	66.42193	630.94806	7.94118	529.72668	-1047.54712	
4389	43.880	-702.29828	-58.72108	-587.09387	712.55859	-42.40298	-502.93069	-773.90759	59.90604	626.32794	795.66632	66.79146	630.79095	7.84037	529.06580	-1048.09558	
4390	43.890	-702.27893	-58.95002	-587.12347	712.58228	-42.52486	-503.01044	-773.88232	60.24176	626.12665	795.63904	67.05366	630.56561	7.69926	528.56958	-1048.56091	
4391	43.900	-702.31140	-59.13391	-587.20764	712.57892	-42.66912	-503.11575	-773.83386	60.62756	625.92194	795.68677	67.43720	630.58325	7.49913	528.13879	-1048.93420	
4392	43.910	-702.22186	-59.42312	-587.18774	712.72131	-42.93946	-503.11896	-773.88605	61.23084	625.78503	795.78125	67.70779	630.49011	7.80709	527.59320	-1049.33752	
4393	43.920	-701.98529	-59.83450	-587.26001	712.79504	-43.42934	-503.09570	-773.77209	61.42383	625.73175	795.85968	67.98048	630.36029	8.10314	527.08752	-1049.40259	
4394	43.930	-701.90570	-60.06663	-587.26300	712.80835	-43.74445	-503.18723	-773.70758	61.59108	625.69495	796.00446	68.25928	630.33350	9.41788	526.74036	-1048.77417	
4395	43.940	-701.85388	-60.22303	-587.28723	712.87518	-44.12835	-503.15576	-773.57312	61.67065	625.77643	796.01929	68.52724	630.06189	8.42015	526.15430	-1049.52539	
4396	43.950	-701.67236	-60.44854	-587.34326	713.02008	-44.34423	-503.18314	-773.44653	61.93080	625.62579	796.08923	68.66512	629.92053	8.47748	525.55359	-1050.05872	
4397	43.960	-701.55493	-60.80000	-587.45642	713.14966	-44.53554	-503.25879	-773.49255	62.23231	625.50995	795.98578	68.97545	629.89600	8.33220	524.96442	-1051.15039	
4398	43.970	-701.51917	-61.09584	-587.53351	713.18286	-44.76146	-503.18112	-773.36176	62.45227	625.48206	796.03375	69.15215	629.85797	8.35719	524.80267	-1051.37622	
4399	43.980	-701.51385	-61.32050	-587.53998	713.21326	-45.00803	-503.28802	-773.41785	62.66635	625.49506	796.07941	69.39658	629.80145	8.34447	524.39691	-1051.71106	
4400	43.990	-701.50018	-61.61351	-587.52759	713.20410	-45.13055	-503.42258	-773.53912	62.88743	625.49463	796.02673	69.61015	629.70959	8.20404	523.82813	-1051.92310	
4401	44.000	-701.38550	-61.93357	-587.53357	713.25824	-45.27496	-503.42487	-773.27161	63.23341	625.30176	796.07440	69.71667	629.40601	8.10390	523.33795	-1052.05688	
4402	44.010	-701.29675	-62.27280	-587.56732	713.25153	-45.40628	-503.50174	-773.34375	63.56261	625.12225	796.24579	70.20908	629.38403	8.23168	522.87201	-1052.13098	
4403	44.020	-701.32135	-62.59005	-587.60870	713.26068	-45.53701	-503.62506	-773.28809	63.77975	625.01471	796.26068	70.70527	629.45770	8.31744	522.39868	-1052.29346	
4404	44.030	-701.37238	-62.77661	-587.63281	713.27588	-45.83319	-503.72025	-773.36530	64.11016	624.84045	796.18976	70.98306	629.39557	8.22667	522.11700	-1052.39563	
4405	44.040	-701.46753	-62.99533	-587.68445	713.30408	-46.24647	-503.69965	-773.36102	64.50201	624.71588	796.16815	71.26566	629.31512	8.24031	521.56940	-1052.74561	
